<svg id="Layer_1" data-name="Layer 1" xmlns="http://www.w3.org/2000/svg" viewBox="0 0 44.25 76.61"><defs><style>.cls-1{fill:#fff;}.cls-2{fill:none;stroke:#fff;stroke-miterlimit:10;}</style></defs><path class="cls-1" d="M208.5,73.37c.12.06-.32.83-1,1.7l-20.3,26.65c-.66.88-.31,1.6.79,1.6h7.36a2,2,0,0,1,2,2V147a2,2,0,0,0,2,2l18.28-.18a2,2,0,0,0,2-2V105.09a2,2,0,0,1,2-2H229c1.1,0,1.45-.71.79-1.59l-20.3-26.65A5.64,5.64,0,0,1,208.5,73.37Z" transform="translate(-186.38 -72.87)"/><path class="cls-2" d="M208.5,73.37c.12.06-.32.83-1,1.7l-20.3,26.65c-.66.88-.31,1.6.79,1.6h7.36a2,2,0,0,1,2,2V147a2,2,0,0,0,2,2l18.28-.18a2,2,0,0,0,2-2V105.09a2,2,0,0,1,2-2H229c1.1,0,1.45-.71.79-1.59l-20.3-26.65A5.64,5.64,0,0,1,208.5,73.37Z" transform="translate(-186.38 -72.87)"/></svg>